<mxfile host="app.diagrams.net" modified="2023-05-15T17:52:28.828Z" agent="Mozilla/5.0 (Windows NT 10.0; Win64; x64) AppleWebKit/537.36 (KHTML, like Gecko) Chrome/113.0.0.0 Safari/537.36" etag="ha_gE-m8bKlsWPT--VB2" version="21.3.2" type="device">
  <diagram id="C5RBs43oDa-KdzZeNtuy" name="Page-1">
    <mxGraphModel dx="2150" dy="1886" grid="1" gridSize="10" guides="1" tooltips="1" connect="1" arrows="1" fold="1" page="1" pageScale="1" pageWidth="827" pageHeight="1169" math="0" shadow="0">
      <root>
        <mxCell id="WIyWlLk6GJQsqaUBKTNV-0" />
        <mxCell id="WIyWlLk6GJQsqaUBKTNV-1" parent="WIyWlLk6GJQsqaUBKTNV-0" />
        <mxCell id="bW-nTOneaaRAHUPsyb_2-2" style="edgeStyle=orthogonalEdgeStyle;rounded=0;orthogonalLoop=1;jettySize=auto;html=1;exitX=0.75;exitY=1;exitDx=0;exitDy=0;entryX=0;entryY=0.5;entryDx=0;entryDy=0;endArrow=none;endFill=0;" parent="WIyWlLk6GJQsqaUBKTNV-1" source="a0xCehPqRtqKpOhBl0_4-2" target="bW-nTOneaaRAHUPsyb_2-3" edge="1">
          <mxGeometry relative="1" as="geometry">
            <mxPoint x="820" y="730" as="targetPoint" />
            <Array as="points">
              <mxPoint x="270" y="330" />
              <mxPoint x="310" y="330" />
              <mxPoint x="310" y="500" />
            </Array>
          </mxGeometry>
        </mxCell>
        <mxCell id="a0xCehPqRtqKpOhBl0_4-2" value="Cliente" style="rounded=0;whiteSpace=wrap;html=1;" parent="WIyWlLk6GJQsqaUBKTNV-1" vertex="1">
          <mxGeometry x="180" y="200" width="120" height="60" as="geometry" />
        </mxCell>
        <mxCell id="a0xCehPqRtqKpOhBl0_4-20" value="Funcionário" style="rounded=0;whiteSpace=wrap;html=1;" parent="WIyWlLk6GJQsqaUBKTNV-1" vertex="1">
          <mxGeometry x="954.89" y="128.78999999999996" width="120" height="60" as="geometry" />
        </mxCell>
        <mxCell id="S4BjxRfpwsZ_V-ewSbEt-8" value="" style="shape=link;html=1;rounded=0;exitX=0.5;exitY=1;exitDx=0;exitDy=0;" parent="WIyWlLk6GJQsqaUBKTNV-1" source="a0xCehPqRtqKpOhBl0_4-20" edge="1">
          <mxGeometry width="100" relative="1" as="geometry">
            <mxPoint x="1004.64" y="260" as="sourcePoint" />
            <mxPoint x="1014.64" y="280" as="targetPoint" />
          </mxGeometry>
        </mxCell>
        <mxCell id="S4BjxRfpwsZ_V-ewSbEt-9" value="&lt;p style=&quot;line-height: 0%;&quot;&gt;IS-A&lt;/p&gt;" style="triangle;whiteSpace=wrap;html=1;rotation=-90;align=center;" parent="WIyWlLk6GJQsqaUBKTNV-1" vertex="1">
          <mxGeometry x="984.89" y="260" width="60" height="80" as="geometry" />
        </mxCell>
        <mxCell id="S4BjxRfpwsZ_V-ewSbEt-10" value="" style="endArrow=none;html=1;rounded=0;entryX=0;entryY=0.75;entryDx=0;entryDy=0;exitX=0.25;exitY=0;exitDx=0;exitDy=0;" parent="WIyWlLk6GJQsqaUBKTNV-1" source="S4BjxRfpwsZ_V-ewSbEt-12" target="S4BjxRfpwsZ_V-ewSbEt-9" edge="1">
          <mxGeometry width="50" height="50" relative="1" as="geometry">
            <mxPoint x="1294.6399999999999" y="360" as="sourcePoint" />
            <mxPoint x="1044.6399999999999" y="360" as="targetPoint" />
            <Array as="points">
              <mxPoint x="1268" y="360" />
              <mxPoint x="1034.6399999999999" y="360" />
            </Array>
          </mxGeometry>
        </mxCell>
        <mxCell id="S4BjxRfpwsZ_V-ewSbEt-12" value="Recepcionista" style="rounded=0;whiteSpace=wrap;html=1;" parent="WIyWlLk6GJQsqaUBKTNV-1" vertex="1">
          <mxGeometry x="1234.64" y="380" width="135.36" height="60" as="geometry" />
        </mxCell>
        <mxCell id="S4BjxRfpwsZ_V-ewSbEt-13" value="Doutor" style="rounded=0;whiteSpace=wrap;html=1;" parent="WIyWlLk6GJQsqaUBKTNV-1" vertex="1">
          <mxGeometry x="834.89" y="380" width="120" height="60" as="geometry" />
        </mxCell>
        <mxCell id="S4BjxRfpwsZ_V-ewSbEt-14" value="" style="endArrow=none;html=1;rounded=0;exitX=0.5;exitY=0;exitDx=0;exitDy=0;" parent="WIyWlLk6GJQsqaUBKTNV-1" source="S4BjxRfpwsZ_V-ewSbEt-13" edge="1">
          <mxGeometry width="50" height="50" relative="1" as="geometry">
            <mxPoint x="944.64" y="380" as="sourcePoint" />
            <mxPoint x="994.64" y="330" as="targetPoint" />
            <Array as="points">
              <mxPoint x="895" y="360" />
              <mxPoint x="994.64" y="360" />
            </Array>
          </mxGeometry>
        </mxCell>
        <mxCell id="S4BjxRfpwsZ_V-ewSbEt-15" value="Num_func" style="ellipse;whiteSpace=wrap;html=1;" parent="WIyWlLk6GJQsqaUBKTNV-1" vertex="1">
          <mxGeometry x="1400" y="475" width="100" height="80" as="geometry" />
        </mxCell>
        <mxCell id="S4BjxRfpwsZ_V-ewSbEt-16" value="" style="rounded=0;sketch=0;orthogonalLoop=1;jettySize=auto;html=1;shadow=0;endArrow=none;endFill=0;exitX=0;exitY=0.5;exitDx=0;exitDy=0;entryX=0.75;entryY=1;entryDx=0;entryDy=0;" parent="WIyWlLk6GJQsqaUBKTNV-1" source="S4BjxRfpwsZ_V-ewSbEt-15" target="S4BjxRfpwsZ_V-ewSbEt-12" edge="1">
          <mxGeometry relative="1" as="geometry">
            <mxPoint x="1399.2846609406724" y="358.28427124746213" as="sourcePoint" />
            <mxPoint x="1374.6399999999999" y="370" as="targetPoint" />
          </mxGeometry>
        </mxCell>
        <mxCell id="S4BjxRfpwsZ_V-ewSbEt-18" value="Produto" style="shape=ext;double=1;rounded=0;whiteSpace=wrap;html=1;" parent="WIyWlLk6GJQsqaUBKTNV-1" vertex="1">
          <mxGeometry x="175" y="550" width="120" height="60" as="geometry" />
        </mxCell>
        <mxCell id="S4BjxRfpwsZ_V-ewSbEt-19" value="Tipo de produto" style="ellipse;whiteSpace=wrap;html=1;" parent="WIyWlLk6GJQsqaUBKTNV-1" vertex="1">
          <mxGeometry x="20" y="490" width="70" height="60" as="geometry" />
        </mxCell>
        <mxCell id="S4BjxRfpwsZ_V-ewSbEt-20" value="Preço" style="ellipse;whiteSpace=wrap;html=1;" parent="WIyWlLk6GJQsqaUBKTNV-1" vertex="1">
          <mxGeometry x="90" y="440" width="70" height="60" as="geometry" />
        </mxCell>
        <mxCell id="S4BjxRfpwsZ_V-ewSbEt-21" value="Fornecido por" style="rhombus;whiteSpace=wrap;html=1;" parent="WIyWlLk6GJQsqaUBKTNV-1" vertex="1">
          <mxGeometry x="190" y="747.5" width="90" height="70" as="geometry" />
        </mxCell>
        <mxCell id="S4BjxRfpwsZ_V-ewSbEt-22" value="Fornecedor" style="rounded=0;whiteSpace=wrap;html=1;" parent="WIyWlLk6GJQsqaUBKTNV-1" vertex="1">
          <mxGeometry x="175" y="910" width="120" height="60" as="geometry" />
        </mxCell>
        <mxCell id="S4BjxRfpwsZ_V-ewSbEt-23" value="Nome" style="ellipse;whiteSpace=wrap;html=1;" parent="WIyWlLk6GJQsqaUBKTNV-1" vertex="1">
          <mxGeometry x="310" y="1000" width="70" height="60" as="geometry" />
        </mxCell>
        <mxCell id="S4BjxRfpwsZ_V-ewSbEt-24" value="Email" style="ellipse;whiteSpace=wrap;html=1;" parent="WIyWlLk6GJQsqaUBKTNV-1" vertex="1">
          <mxGeometry x="370" y="950" width="70" height="60" as="geometry" />
        </mxCell>
        <mxCell id="S4BjxRfpwsZ_V-ewSbEt-25" value="Telemóvel" style="ellipse;whiteSpace=wrap;html=1;" parent="WIyWlLk6GJQsqaUBKTNV-1" vertex="1">
          <mxGeometry x="220" y="1030" width="70" height="60" as="geometry" />
        </mxCell>
        <mxCell id="LsdDCm63fnb7tu5n5u13-3" value="Num SNS" style="ellipse;whiteSpace=wrap;html=1;" parent="WIyWlLk6GJQsqaUBKTNV-1" vertex="1">
          <mxGeometry x="690" y="350" width="100" height="80" as="geometry" />
        </mxCell>
        <mxCell id="LsdDCm63fnb7tu5n5u13-4" value="" style="endArrow=none;html=1;rounded=0;entryX=1;entryY=0.5;entryDx=0;entryDy=0;exitX=0;exitY=0.75;exitDx=0;exitDy=0;" parent="WIyWlLk6GJQsqaUBKTNV-1" source="S4BjxRfpwsZ_V-ewSbEt-13" target="LsdDCm63fnb7tu5n5u13-3" edge="1">
          <mxGeometry width="50" height="50" relative="1" as="geometry">
            <mxPoint x="774.64" y="430" as="sourcePoint" />
            <mxPoint x="819.9953390593274" y="368.284271247462" as="targetPoint" />
          </mxGeometry>
        </mxCell>
        <mxCell id="LsdDCm63fnb7tu5n5u13-7" value="&lt;u&gt;NIF&lt;/u&gt;" style="ellipse;whiteSpace=wrap;html=1;" parent="WIyWlLk6GJQsqaUBKTNV-1" vertex="1">
          <mxGeometry x="50" y="960" width="70" height="60" as="geometry" />
        </mxCell>
        <mxCell id="LsdDCm63fnb7tu5n5u13-8" value="" style="endArrow=none;html=1;rounded=0;exitX=0.743;exitY=0.078;exitDx=0;exitDy=0;exitPerimeter=0;entryX=0;entryY=0.75;entryDx=0;entryDy=0;" parent="WIyWlLk6GJQsqaUBKTNV-1" source="LsdDCm63fnb7tu5n5u13-7" target="S4BjxRfpwsZ_V-ewSbEt-22" edge="1">
          <mxGeometry width="50" height="50" relative="1" as="geometry">
            <mxPoint x="120" y="1030" as="sourcePoint" />
            <mxPoint x="170" y="950" as="targetPoint" />
          </mxGeometry>
        </mxCell>
        <mxCell id="LsdDCm63fnb7tu5n5u13-9" value="" style="endArrow=none;html=1;rounded=0;entryX=0.5;entryY=0;entryDx=0;entryDy=0;" parent="WIyWlLk6GJQsqaUBKTNV-1" source="S4BjxRfpwsZ_V-ewSbEt-22" target="S4BjxRfpwsZ_V-ewSbEt-25" edge="1">
          <mxGeometry width="50" height="50" relative="1" as="geometry">
            <mxPoint x="230" y="1050" as="sourcePoint" />
            <mxPoint x="230" y="1070.7106781186549" as="targetPoint" />
          </mxGeometry>
        </mxCell>
        <mxCell id="LsdDCm63fnb7tu5n5u13-10" value="" style="endArrow=none;html=1;rounded=0;exitX=1;exitY=1;exitDx=0;exitDy=0;entryX=0;entryY=0;entryDx=0;entryDy=0;" parent="WIyWlLk6GJQsqaUBKTNV-1" source="S4BjxRfpwsZ_V-ewSbEt-22" target="S4BjxRfpwsZ_V-ewSbEt-23" edge="1">
          <mxGeometry width="50" height="50" relative="1" as="geometry">
            <mxPoint x="290" y="1060" as="sourcePoint" />
            <mxPoint x="340" y="1010" as="targetPoint" />
          </mxGeometry>
        </mxCell>
        <mxCell id="LsdDCm63fnb7tu5n5u13-11" value="" style="endArrow=none;html=1;rounded=0;exitX=1;exitY=0.5;exitDx=0;exitDy=0;entryX=0;entryY=0.5;entryDx=0;entryDy=0;" parent="WIyWlLk6GJQsqaUBKTNV-1" source="S4BjxRfpwsZ_V-ewSbEt-22" target="S4BjxRfpwsZ_V-ewSbEt-24" edge="1">
          <mxGeometry width="50" height="50" relative="1" as="geometry">
            <mxPoint x="310" y="970" as="sourcePoint" />
            <mxPoint x="370" y="920" as="targetPoint" />
          </mxGeometry>
        </mxCell>
        <mxCell id="LsdDCm63fnb7tu5n5u13-12" value="Morada" style="ellipse;whiteSpace=wrap;html=1;" parent="WIyWlLk6GJQsqaUBKTNV-1" vertex="1">
          <mxGeometry x="125" y="1020" width="70" height="60" as="geometry" />
        </mxCell>
        <mxCell id="LsdDCm63fnb7tu5n5u13-13" value="" style="endArrow=none;html=1;rounded=0;exitX=0.662;exitY=0.039;exitDx=0;exitDy=0;entryX=0.25;entryY=1;entryDx=0;entryDy=0;exitPerimeter=0;" parent="WIyWlLk6GJQsqaUBKTNV-1" source="LsdDCm63fnb7tu5n5u13-12" target="S4BjxRfpwsZ_V-ewSbEt-22" edge="1">
          <mxGeometry width="50" height="50" relative="1" as="geometry">
            <mxPoint x="170" y="1050" as="sourcePoint" />
            <mxPoint x="220" y="1000" as="targetPoint" />
          </mxGeometry>
        </mxCell>
        <mxCell id="LsdDCm63fnb7tu5n5u13-14" value="&lt;u&gt;ID&lt;/u&gt;" style="ellipse;whiteSpace=wrap;html=1;" parent="WIyWlLk6GJQsqaUBKTNV-1" vertex="1">
          <mxGeometry x="10" y="570" width="70" height="60" as="geometry" />
        </mxCell>
        <mxCell id="LsdDCm63fnb7tu5n5u13-15" value="Marca" style="ellipse;whiteSpace=wrap;html=1;" parent="WIyWlLk6GJQsqaUBKTNV-1" vertex="1">
          <mxGeometry x="20" y="650" width="70" height="60" as="geometry" />
        </mxCell>
        <mxCell id="LsdDCm63fnb7tu5n5u13-16" value="" style="endArrow=none;html=1;rounded=0;entryX=1;entryY=1;entryDx=0;entryDy=0;" parent="WIyWlLk6GJQsqaUBKTNV-1" source="S4BjxRfpwsZ_V-ewSbEt-18" target="S4BjxRfpwsZ_V-ewSbEt-20" edge="1">
          <mxGeometry width="50" height="50" relative="1" as="geometry">
            <mxPoint x="90" y="560" as="sourcePoint" />
            <mxPoint x="140" y="510" as="targetPoint" />
          </mxGeometry>
        </mxCell>
        <mxCell id="LsdDCm63fnb7tu5n5u13-17" value="" style="endArrow=none;html=1;rounded=0;entryX=1;entryY=0.5;entryDx=0;entryDy=0;exitX=0;exitY=0;exitDx=0;exitDy=0;" parent="WIyWlLk6GJQsqaUBKTNV-1" source="S4BjxRfpwsZ_V-ewSbEt-18" target="S4BjxRfpwsZ_V-ewSbEt-19" edge="1">
          <mxGeometry width="50" height="50" relative="1" as="geometry">
            <mxPoint x="180" y="560" as="sourcePoint" />
            <mxPoint x="160" y="501" as="targetPoint" />
          </mxGeometry>
        </mxCell>
        <mxCell id="LsdDCm63fnb7tu5n5u13-18" value="" style="endArrow=none;html=1;rounded=0;exitX=0;exitY=0.75;exitDx=0;exitDy=0;entryX=1;entryY=0.5;entryDx=0;entryDy=0;" parent="WIyWlLk6GJQsqaUBKTNV-1" source="S4BjxRfpwsZ_V-ewSbEt-18" target="LsdDCm63fnb7tu5n5u13-14" edge="1">
          <mxGeometry width="50" height="50" relative="1" as="geometry">
            <mxPoint x="190" y="570" as="sourcePoint" />
            <mxPoint x="170" y="511" as="targetPoint" />
          </mxGeometry>
        </mxCell>
        <mxCell id="LsdDCm63fnb7tu5n5u13-19" value="" style="endArrow=none;html=1;rounded=0;entryX=1;entryY=0;entryDx=0;entryDy=0;exitX=0;exitY=1;exitDx=0;exitDy=0;" parent="WIyWlLk6GJQsqaUBKTNV-1" source="S4BjxRfpwsZ_V-ewSbEt-18" target="LsdDCm63fnb7tu5n5u13-15" edge="1">
          <mxGeometry width="50" height="50" relative="1" as="geometry">
            <mxPoint x="200" y="580" as="sourcePoint" />
            <mxPoint x="180" y="521" as="targetPoint" />
          </mxGeometry>
        </mxCell>
        <mxCell id="LsdDCm63fnb7tu5n5u13-20" value="Receita" style="shape=ext;double=1;rounded=0;whiteSpace=wrap;html=1;" parent="WIyWlLk6GJQsqaUBKTNV-1" vertex="1">
          <mxGeometry x="950" y="630" width="120" height="60" as="geometry" />
        </mxCell>
        <mxCell id="LsdDCm63fnb7tu5n5u13-22" value="&lt;u&gt;ID da receita&lt;/u&gt;" style="ellipse;whiteSpace=wrap;html=1;" parent="WIyWlLk6GJQsqaUBKTNV-1" vertex="1">
          <mxGeometry x="1104.64" y="555" width="100" height="80" as="geometry" />
        </mxCell>
        <mxCell id="LsdDCm63fnb7tu5n5u13-23" value="Descrição" style="ellipse;whiteSpace=wrap;html=1;" parent="WIyWlLk6GJQsqaUBKTNV-1" vertex="1">
          <mxGeometry x="1154.64" y="660" width="100" height="80" as="geometry" />
        </mxCell>
        <mxCell id="LsdDCm63fnb7tu5n5u13-25" value="" style="endArrow=none;html=1;rounded=0;exitX=1;exitY=0;exitDx=0;exitDy=0;entryX=0;entryY=1;entryDx=0;entryDy=0;" parent="WIyWlLk6GJQsqaUBKTNV-1" source="LsdDCm63fnb7tu5n5u13-20" target="LsdDCm63fnb7tu5n5u13-22" edge="1">
          <mxGeometry width="50" height="50" relative="1" as="geometry">
            <mxPoint x="1070.3600000000001" y="642.5" as="sourcePoint" />
            <mxPoint x="1120.3600000000001" y="592.5" as="targetPoint" />
          </mxGeometry>
        </mxCell>
        <mxCell id="LsdDCm63fnb7tu5n5u13-26" value="" style="endArrow=none;html=1;rounded=0;entryX=1;entryY=0.75;entryDx=0;entryDy=0;exitX=0;exitY=0.5;exitDx=0;exitDy=0;" parent="WIyWlLk6GJQsqaUBKTNV-1" source="LsdDCm63fnb7tu5n5u13-23" target="LsdDCm63fnb7tu5n5u13-20" edge="1">
          <mxGeometry width="50" height="50" relative="1" as="geometry">
            <mxPoint x="1050.3600000000001" y="742.5" as="sourcePoint" />
            <mxPoint x="1100.3600000000001" y="692.5" as="targetPoint" />
          </mxGeometry>
        </mxCell>
        <mxCell id="LsdDCm63fnb7tu5n5u13-28" value="Stock" style="shape=ext;double=1;rounded=0;whiteSpace=wrap;html=1;" parent="WIyWlLk6GJQsqaUBKTNV-1" vertex="1">
          <mxGeometry x="463" y="720" width="120" height="60" as="geometry" />
        </mxCell>
        <mxCell id="LsdDCm63fnb7tu5n5u13-29" value="Vendido ao" style="rhombus;whiteSpace=wrap;html=1;" parent="WIyWlLk6GJQsqaUBKTNV-1" vertex="1">
          <mxGeometry x="195" y="370" width="90" height="60" as="geometry" />
        </mxCell>
        <mxCell id="LsdDCm63fnb7tu5n5u13-30" value="" style="endArrow=none;html=1;rounded=0;entryX=0.5;entryY=1;entryDx=0;entryDy=0;exitX=0.5;exitY=0;exitDx=0;exitDy=0;" parent="WIyWlLk6GJQsqaUBKTNV-1" source="LsdDCm63fnb7tu5n5u13-29" target="a0xCehPqRtqKpOhBl0_4-2" edge="1">
          <mxGeometry width="50" height="50" relative="1" as="geometry">
            <mxPoint x="200" y="330" as="sourcePoint" />
            <mxPoint x="250" y="280" as="targetPoint" />
          </mxGeometry>
        </mxCell>
        <mxCell id="LsdDCm63fnb7tu5n5u13-31" value="" style="shape=link;html=1;rounded=0;entryX=0.5;entryY=1;entryDx=0;entryDy=0;" parent="WIyWlLk6GJQsqaUBKTNV-1" target="LsdDCm63fnb7tu5n5u13-29" edge="1">
          <mxGeometry width="100" relative="1" as="geometry">
            <mxPoint x="240" y="550" as="sourcePoint" />
            <mxPoint x="320" y="490" as="targetPoint" />
          </mxGeometry>
        </mxCell>
        <mxCell id="LsdDCm63fnb7tu5n5u13-32" value="N" style="text;html=1;align=center;verticalAlign=middle;resizable=0;points=[];autosize=1;strokeColor=none;fillColor=none;" parent="WIyWlLk6GJQsqaUBKTNV-1" vertex="1">
          <mxGeometry x="240" y="520" width="30" height="30" as="geometry" />
        </mxCell>
        <mxCell id="LsdDCm63fnb7tu5n5u13-34" value="M" style="text;html=1;align=center;verticalAlign=middle;resizable=0;points=[];autosize=1;strokeColor=none;fillColor=none;" parent="WIyWlLk6GJQsqaUBKTNV-1" vertex="1">
          <mxGeometry x="210" y="260" width="30" height="30" as="geometry" />
        </mxCell>
        <mxCell id="LsdDCm63fnb7tu5n5u13-35" value="" style="endArrow=none;html=1;rounded=0;entryX=0.5;entryY=1;entryDx=0;entryDy=0;shape=link;" parent="WIyWlLk6GJQsqaUBKTNV-1" source="S4BjxRfpwsZ_V-ewSbEt-22" target="S4BjxRfpwsZ_V-ewSbEt-21" edge="1">
          <mxGeometry width="50" height="50" relative="1" as="geometry">
            <mxPoint x="110" y="780" as="sourcePoint" />
            <mxPoint x="100" y="730" as="targetPoint" />
          </mxGeometry>
        </mxCell>
        <mxCell id="LsdDCm63fnb7tu5n5u13-36" value="" style="shape=link;html=1;rounded=0;exitX=0.5;exitY=0;exitDx=0;exitDy=0;entryX=0.5;entryY=1;entryDx=0;entryDy=0;" parent="WIyWlLk6GJQsqaUBKTNV-1" source="S4BjxRfpwsZ_V-ewSbEt-21" target="S4BjxRfpwsZ_V-ewSbEt-18" edge="1">
          <mxGeometry width="100" relative="1" as="geometry">
            <mxPoint x="180" y="690" as="sourcePoint" />
            <mxPoint x="280" y="690" as="targetPoint" />
          </mxGeometry>
        </mxCell>
        <mxCell id="LsdDCm63fnb7tu5n5u13-37" value="M" style="text;html=1;align=center;verticalAlign=middle;resizable=0;points=[];autosize=1;strokeColor=none;fillColor=none;" parent="WIyWlLk6GJQsqaUBKTNV-1" vertex="1">
          <mxGeometry x="240" y="880" width="30" height="30" as="geometry" />
        </mxCell>
        <mxCell id="LsdDCm63fnb7tu5n5u13-38" value="N" style="text;html=1;align=center;verticalAlign=middle;resizable=0;points=[];autosize=1;strokeColor=none;fillColor=none;" parent="WIyWlLk6GJQsqaUBKTNV-1" vertex="1">
          <mxGeometry x="240" y="610" width="30" height="30" as="geometry" />
        </mxCell>
        <mxCell id="LsdDCm63fnb7tu5n5u13-39" value="Passada por" style="rhombus;whiteSpace=wrap;html=1;" parent="WIyWlLk6GJQsqaUBKTNV-1" vertex="1">
          <mxGeometry x="852.39" y="520" width="85" height="60" as="geometry" />
        </mxCell>
        <mxCell id="LsdDCm63fnb7tu5n5u13-40" value="" style="endArrow=none;html=1;rounded=0;entryX=0.5;entryY=1;entryDx=0;entryDy=0;exitX=0.5;exitY=0;exitDx=0;exitDy=0;" parent="WIyWlLk6GJQsqaUBKTNV-1" source="LsdDCm63fnb7tu5n5u13-39" target="S4BjxRfpwsZ_V-ewSbEt-13" edge="1">
          <mxGeometry width="50" height="50" relative="1" as="geometry">
            <mxPoint x="850" y="500" as="sourcePoint" />
            <mxPoint x="900" y="450" as="targetPoint" />
          </mxGeometry>
        </mxCell>
        <mxCell id="LsdDCm63fnb7tu5n5u13-41" value="" style="endArrow=none;html=1;rounded=0;entryX=0.5;entryY=1;entryDx=0;entryDy=0;exitX=0;exitY=0.5;exitDx=0;exitDy=0;shape=link;" parent="WIyWlLk6GJQsqaUBKTNV-1" source="LsdDCm63fnb7tu5n5u13-20" target="LsdDCm63fnb7tu5n5u13-39" edge="1">
          <mxGeometry width="50" height="50" relative="1" as="geometry">
            <mxPoint x="895" y="680" as="sourcePoint" />
            <mxPoint x="905" y="450" as="targetPoint" />
            <Array as="points">
              <mxPoint x="895" y="660" />
            </Array>
          </mxGeometry>
        </mxCell>
        <mxCell id="LsdDCm63fnb7tu5n5u13-42" value="1" style="text;html=1;align=center;verticalAlign=middle;resizable=0;points=[];autosize=1;strokeColor=none;fillColor=none;" parent="WIyWlLk6GJQsqaUBKTNV-1" vertex="1">
          <mxGeometry x="870" y="440" width="30" height="30" as="geometry" />
        </mxCell>
        <mxCell id="LsdDCm63fnb7tu5n5u13-43" value="N" style="text;html=1;align=center;verticalAlign=middle;resizable=0;points=[];autosize=1;strokeColor=none;fillColor=none;" parent="WIyWlLk6GJQsqaUBKTNV-1" vertex="1">
          <mxGeometry x="924.89" y="660" width="30" height="30" as="geometry" />
        </mxCell>
        <mxCell id="LsdDCm63fnb7tu5n5u13-49" value="Tem" style="rhombus;whiteSpace=wrap;html=1;" parent="WIyWlLk6GJQsqaUBKTNV-1" vertex="1">
          <mxGeometry x="353" y="554" width="60" height="50" as="geometry" />
        </mxCell>
        <mxCell id="LsdDCm63fnb7tu5n5u13-50" value="" style="endArrow=none;html=1;rounded=0;exitX=1;exitY=0.5;exitDx=0;exitDy=0;entryX=0;entryY=0.5;entryDx=0;entryDy=0;shape=link;" parent="WIyWlLk6GJQsqaUBKTNV-1" source="LsdDCm63fnb7tu5n5u13-49" target="LsdDCm63fnb7tu5n5u13-28" edge="1">
          <mxGeometry width="50" height="50" relative="1" as="geometry">
            <mxPoint x="420" y="710" as="sourcePoint" />
            <mxPoint x="550" y="580" as="targetPoint" />
          </mxGeometry>
        </mxCell>
        <mxCell id="LsdDCm63fnb7tu5n5u13-52" value="" style="endArrow=none;html=1;rounded=0;entryX=0;entryY=0.5;entryDx=0;entryDy=0;exitX=1;exitY=0.5;exitDx=0;exitDy=0;" parent="WIyWlLk6GJQsqaUBKTNV-1" source="S4BjxRfpwsZ_V-ewSbEt-18" target="LsdDCm63fnb7tu5n5u13-49" edge="1">
          <mxGeometry width="50" height="50" relative="1" as="geometry">
            <mxPoint x="300" y="590" as="sourcePoint" />
            <mxPoint x="390" y="583" as="targetPoint" />
          </mxGeometry>
        </mxCell>
        <mxCell id="LsdDCm63fnb7tu5n5u13-54" value="&lt;span style=&quot;color: rgb(0, 0, 0); font-family: Helvetica; font-size: 12px; font-style: normal; font-variant-ligatures: normal; font-variant-caps: normal; font-weight: 400; letter-spacing: normal; orphans: 2; text-align: center; text-indent: 0px; text-transform: none; widows: 2; word-spacing: 0px; -webkit-text-stroke-width: 0px; background-color: rgb(251, 251, 251); text-decoration-thickness: initial; text-decoration-style: initial; text-decoration-color: initial; float: none; display: inline !important;&quot;&gt;N&lt;/span&gt;" style="text;whiteSpace=wrap;html=1;" parent="WIyWlLk6GJQsqaUBKTNV-1" vertex="1">
          <mxGeometry x="300" y="580" width="40" height="40" as="geometry" />
        </mxCell>
        <mxCell id="LsdDCm63fnb7tu5n5u13-55" value="&lt;span style=&quot;color: rgb(0, 0, 0); font-family: Helvetica; font-size: 12px; font-style: normal; font-variant-ligatures: normal; font-variant-caps: normal; font-weight: 400; letter-spacing: normal; orphans: 2; text-align: center; text-indent: 0px; text-transform: none; widows: 2; word-spacing: 0px; -webkit-text-stroke-width: 0px; background-color: rgb(251, 251, 251); text-decoration-thickness: initial; text-decoration-style: initial; text-decoration-color: initial; float: none; display: inline !important;&quot;&gt;1&lt;/span&gt;" style="text;whiteSpace=wrap;html=1;" parent="WIyWlLk6GJQsqaUBKTNV-1" vertex="1">
          <mxGeometry x="440" y="740" width="40" height="40" as="geometry" />
        </mxCell>
        <mxCell id="LsdDCm63fnb7tu5n5u13-56" value="Data de entrada" style="ellipse;whiteSpace=wrap;html=1;" parent="WIyWlLk6GJQsqaUBKTNV-1" vertex="1">
          <mxGeometry x="513" y="620" width="90" height="70" as="geometry" />
        </mxCell>
        <mxCell id="LsdDCm63fnb7tu5n5u13-57" value="Data de saída" style="ellipse;whiteSpace=wrap;html=1;" parent="WIyWlLk6GJQsqaUBKTNV-1" vertex="1">
          <mxGeometry x="622.75" y="655" width="80.5" height="65" as="geometry" />
        </mxCell>
        <mxCell id="LsdDCm63fnb7tu5n5u13-58" value="Estado" style="ellipse;whiteSpace=wrap;html=1;" parent="WIyWlLk6GJQsqaUBKTNV-1" vertex="1">
          <mxGeometry x="630" y="745" width="80" height="65" as="geometry" />
        </mxCell>
        <mxCell id="LsdDCm63fnb7tu5n5u13-59" value="" style="endArrow=none;html=1;rounded=0;entryX=0;entryY=1;entryDx=0;entryDy=0;exitX=1;exitY=0.25;exitDx=0;exitDy=0;" parent="WIyWlLk6GJQsqaUBKTNV-1" source="LsdDCm63fnb7tu5n5u13-28" target="LsdDCm63fnb7tu5n5u13-57" edge="1">
          <mxGeometry width="50" height="50" relative="1" as="geometry">
            <mxPoint x="553" y="860" as="sourcePoint" />
            <mxPoint x="603" y="810" as="targetPoint" />
          </mxGeometry>
        </mxCell>
        <mxCell id="LsdDCm63fnb7tu5n5u13-60" value="" style="endArrow=none;html=1;rounded=0;entryX=0;entryY=0.5;entryDx=0;entryDy=0;exitX=1;exitY=0.75;exitDx=0;exitDy=0;" parent="WIyWlLk6GJQsqaUBKTNV-1" source="LsdDCm63fnb7tu5n5u13-28" target="LsdDCm63fnb7tu5n5u13-58" edge="1">
          <mxGeometry width="50" height="50" relative="1" as="geometry">
            <mxPoint x="583" y="860" as="sourcePoint" />
            <mxPoint x="633" y="810" as="targetPoint" />
          </mxGeometry>
        </mxCell>
        <mxCell id="LsdDCm63fnb7tu5n5u13-61" value="" style="endArrow=none;html=1;rounded=0;entryX=0.5;entryY=1;entryDx=0;entryDy=0;exitX=0.75;exitY=0;exitDx=0;exitDy=0;" parent="WIyWlLk6GJQsqaUBKTNV-1" source="LsdDCm63fnb7tu5n5u13-28" target="LsdDCm63fnb7tu5n5u13-56" edge="1">
          <mxGeometry width="50" height="50" relative="1" as="geometry">
            <mxPoint x="483" y="730" as="sourcePoint" />
            <mxPoint x="533" y="680" as="targetPoint" />
          </mxGeometry>
        </mxCell>
        <mxCell id="LsdDCm63fnb7tu5n5u13-62" value="Pagamento" style="shape=ext;double=1;rounded=0;whiteSpace=wrap;html=1;" parent="WIyWlLk6GJQsqaUBKTNV-1" vertex="1">
          <mxGeometry x="-220" y="380" width="120" height="60" as="geometry" />
        </mxCell>
        <mxCell id="LsdDCm63fnb7tu5n5u13-63" value="" style="endArrow=none;html=1;rounded=0;shadow=0;sketch=0;exitX=0;exitY=0.75;exitDx=0;exitDy=0;entryX=1;entryY=0.5;entryDx=0;entryDy=0;" parent="WIyWlLk6GJQsqaUBKTNV-1" source="a0xCehPqRtqKpOhBl0_4-2" target="LsdDCm63fnb7tu5n5u13-64" edge="1">
          <mxGeometry width="50" height="50" relative="1" as="geometry">
            <mxPoint x="190" y="255" as="sourcePoint" />
            <mxPoint x="-20" y="245" as="targetPoint" />
          </mxGeometry>
        </mxCell>
        <mxCell id="LsdDCm63fnb7tu5n5u13-64" value="Realiza" style="rhombus;whiteSpace=wrap;html=1;" parent="WIyWlLk6GJQsqaUBKTNV-1" vertex="1">
          <mxGeometry x="-100" y="220" width="80" height="50" as="geometry" />
        </mxCell>
        <mxCell id="LsdDCm63fnb7tu5n5u13-65" value="" style="endArrow=none;html=1;rounded=0;shadow=0;sketch=0;exitX=0;exitY=0.5;exitDx=0;exitDy=0;entryX=0.5;entryY=0;entryDx=0;entryDy=0;shape=link;" parent="WIyWlLk6GJQsqaUBKTNV-1" source="LsdDCm63fnb7tu5n5u13-64" target="LsdDCm63fnb7tu5n5u13-62" edge="1">
          <mxGeometry width="50" height="50" relative="1" as="geometry">
            <mxPoint x="-150" y="274.33" as="sourcePoint" />
            <mxPoint x="-360" y="274.33" as="targetPoint" />
            <Array as="points">
              <mxPoint x="-160" y="245" />
            </Array>
          </mxGeometry>
        </mxCell>
        <mxCell id="LsdDCm63fnb7tu5n5u13-66" value="Fatura" style="shape=ext;double=1;rounded=0;whiteSpace=wrap;html=1;strokeColor=default;perimeterSpacing=0;fillStyle=auto;glass=0;shadow=0;" parent="WIyWlLk6GJQsqaUBKTNV-1" vertex="1">
          <mxGeometry x="-220" y="780" width="120" height="60" as="geometry" />
        </mxCell>
        <mxCell id="LsdDCm63fnb7tu5n5u13-67" value="Pode ter&amp;nbsp;" style="rhombus;whiteSpace=wrap;html=1;" parent="WIyWlLk6GJQsqaUBKTNV-1" vertex="1">
          <mxGeometry x="-202.5" y="595" width="85" height="55" as="geometry" />
        </mxCell>
        <mxCell id="LsdDCm63fnb7tu5n5u13-68" value="" style="endArrow=none;html=1;rounded=0;entryX=0.5;entryY=1;entryDx=0;entryDy=0;" parent="WIyWlLk6GJQsqaUBKTNV-1" source="LsdDCm63fnb7tu5n5u13-67" target="LsdDCm63fnb7tu5n5u13-62" edge="1">
          <mxGeometry width="50" height="50" relative="1" as="geometry">
            <mxPoint x="-200" y="520" as="sourcePoint" />
            <mxPoint x="-150" y="470" as="targetPoint" />
          </mxGeometry>
        </mxCell>
        <mxCell id="LsdDCm63fnb7tu5n5u13-69" value="" style="endArrow=none;html=1;rounded=0;entryX=0.5;entryY=1;entryDx=0;entryDy=0;exitX=0.5;exitY=0;exitDx=0;exitDy=0;shape=link;" parent="WIyWlLk6GJQsqaUBKTNV-1" source="LsdDCm63fnb7tu5n5u13-66" target="LsdDCm63fnb7tu5n5u13-67" edge="1">
          <mxGeometry width="50" height="50" relative="1" as="geometry">
            <mxPoint x="-230" y="690" as="sourcePoint" />
            <mxPoint x="-180" y="640" as="targetPoint" />
          </mxGeometry>
        </mxCell>
        <mxCell id="LsdDCm63fnb7tu5n5u13-70" value="&lt;span style=&quot;color: rgb(0, 0, 0); font-family: Helvetica; font-size: 12px; font-style: normal; font-variant-ligatures: normal; font-variant-caps: normal; font-weight: 400; letter-spacing: normal; orphans: 2; text-align: center; text-indent: 0px; text-transform: none; widows: 2; word-spacing: 0px; -webkit-text-stroke-width: 0px; background-color: rgb(251, 251, 251); text-decoration-thickness: initial; text-decoration-style: initial; text-decoration-color: initial; float: none; display: inline !important;&quot;&gt;N&lt;/span&gt;" style="text;whiteSpace=wrap;html=1;" parent="WIyWlLk6GJQsqaUBKTNV-1" vertex="1">
          <mxGeometry x="-150" y="440" width="40" height="40" as="geometry" />
        </mxCell>
        <mxCell id="LsdDCm63fnb7tu5n5u13-71" value="&lt;span style=&quot;color: rgb(0, 0, 0); font-family: Helvetica; font-size: 12px; font-style: normal; font-variant-ligatures: normal; font-variant-caps: normal; font-weight: 400; letter-spacing: normal; orphans: 2; text-align: center; text-indent: 0px; text-transform: none; widows: 2; word-spacing: 0px; -webkit-text-stroke-width: 0px; background-color: rgb(251, 251, 251); text-decoration-thickness: initial; text-decoration-style: initial; text-decoration-color: initial; float: none; display: inline !important;&quot;&gt;1&lt;/span&gt;" style="text;whiteSpace=wrap;html=1;" parent="WIyWlLk6GJQsqaUBKTNV-1" vertex="1">
          <mxGeometry x="-150" y="760" width="40" height="40" as="geometry" />
        </mxCell>
        <mxCell id="LsdDCm63fnb7tu5n5u13-73" value="&lt;u&gt;ID da fatura&lt;/u&gt;" style="ellipse;whiteSpace=wrap;html=1;" parent="WIyWlLk6GJQsqaUBKTNV-1" vertex="1">
          <mxGeometry x="-30" y="800" width="90" height="70" as="geometry" />
        </mxCell>
        <mxCell id="LsdDCm63fnb7tu5n5u13-74" value="Descrição do produto" style="ellipse;whiteSpace=wrap;html=1;" parent="WIyWlLk6GJQsqaUBKTNV-1" vertex="1">
          <mxGeometry x="-90" y="887.5" width="100" height="82.5" as="geometry" />
        </mxCell>
        <mxCell id="LsdDCm63fnb7tu5n5u13-77" value="Impostos" style="ellipse;whiteSpace=wrap;html=1;" parent="WIyWlLk6GJQsqaUBKTNV-1" vertex="1">
          <mxGeometry x="-302.5" y="900" width="100" height="80" as="geometry" />
        </mxCell>
        <mxCell id="LsdDCm63fnb7tu5n5u13-78" value="Preço total" style="ellipse;whiteSpace=wrap;html=1;" parent="WIyWlLk6GJQsqaUBKTNV-1" vertex="1">
          <mxGeometry x="-380" y="810" width="90" height="77.5" as="geometry" />
        </mxCell>
        <mxCell id="LsdDCm63fnb7tu5n5u13-79" value="" style="endArrow=none;html=1;rounded=0;exitX=1;exitY=0.5;exitDx=0;exitDy=0;entryX=0;entryY=0.5;entryDx=0;entryDy=0;" parent="WIyWlLk6GJQsqaUBKTNV-1" source="LsdDCm63fnb7tu5n5u13-78" target="LsdDCm63fnb7tu5n5u13-66" edge="1">
          <mxGeometry width="50" height="50" relative="1" as="geometry">
            <mxPoint x="-280" y="860" as="sourcePoint" />
            <mxPoint x="-220" y="820" as="targetPoint" />
          </mxGeometry>
        </mxCell>
        <mxCell id="LsdDCm63fnb7tu5n5u13-80" value="" style="endArrow=none;html=1;rounded=0;entryX=0.25;entryY=1;entryDx=0;entryDy=0;exitX=1;exitY=0;exitDx=0;exitDy=0;" parent="WIyWlLk6GJQsqaUBKTNV-1" source="LsdDCm63fnb7tu5n5u13-77" target="LsdDCm63fnb7tu5n5u13-66" edge="1">
          <mxGeometry width="50" height="50" relative="1" as="geometry">
            <mxPoint x="-200" y="940" as="sourcePoint" />
            <mxPoint x="-150" y="890" as="targetPoint" />
          </mxGeometry>
        </mxCell>
        <mxCell id="LsdDCm63fnb7tu5n5u13-82" value="" style="endArrow=none;html=1;rounded=0;entryX=1;entryY=1;entryDx=0;entryDy=0;exitX=0;exitY=0;exitDx=0;exitDy=0;" parent="WIyWlLk6GJQsqaUBKTNV-1" source="LsdDCm63fnb7tu5n5u13-74" target="LsdDCm63fnb7tu5n5u13-66" edge="1">
          <mxGeometry width="50" height="50" relative="1" as="geometry">
            <mxPoint x="-140" y="910" as="sourcePoint" />
            <mxPoint x="-90" y="860" as="targetPoint" />
          </mxGeometry>
        </mxCell>
        <mxCell id="LsdDCm63fnb7tu5n5u13-83" value="" style="endArrow=none;html=1;rounded=0;exitX=1;exitY=0.5;exitDx=0;exitDy=0;entryX=0;entryY=0.5;entryDx=0;entryDy=0;" parent="WIyWlLk6GJQsqaUBKTNV-1" source="LsdDCm63fnb7tu5n5u13-66" target="LsdDCm63fnb7tu5n5u13-73" edge="1">
          <mxGeometry width="50" height="50" relative="1" as="geometry">
            <mxPoint x="-80" y="850" as="sourcePoint" />
            <mxPoint x="-30" y="800" as="targetPoint" />
          </mxGeometry>
        </mxCell>
        <mxCell id="LsdDCm63fnb7tu5n5u13-84" value="Consulta" style="shape=ext;double=1;rounded=0;whiteSpace=wrap;html=1;" parent="WIyWlLk6GJQsqaUBKTNV-1" vertex="1">
          <mxGeometry x="607" y="100" width="120" height="60" as="geometry" />
        </mxCell>
        <mxCell id="LsdDCm63fnb7tu5n5u13-85" value="" style="endArrow=none;html=1;rounded=0;entryX=0.5;entryY=0;entryDx=0;entryDy=0;exitX=1;exitY=0.5;exitDx=0;exitDy=0;" parent="WIyWlLk6GJQsqaUBKTNV-1" source="LsdDCm63fnb7tu5n5u13-86" target="S4BjxRfpwsZ_V-ewSbEt-12" edge="1">
          <mxGeometry width="50" height="50" relative="1" as="geometry">
            <mxPoint x="1060" y="-40" as="sourcePoint" />
            <mxPoint x="1010" y="410" as="targetPoint" />
            <Array as="points">
              <mxPoint x="1300" y="-40" />
            </Array>
          </mxGeometry>
        </mxCell>
        <mxCell id="LsdDCm63fnb7tu5n5u13-86" value="Agendada por" style="rhombus;whiteSpace=wrap;html=1;" parent="WIyWlLk6GJQsqaUBKTNV-1" vertex="1">
          <mxGeometry x="1070" y="-80" width="100" height="80" as="geometry" />
        </mxCell>
        <mxCell id="LsdDCm63fnb7tu5n5u13-87" value="" style="endArrow=none;html=1;rounded=0;entryX=0;entryY=0.5;entryDx=0;entryDy=0;exitX=0.75;exitY=0;exitDx=0;exitDy=0;" parent="WIyWlLk6GJQsqaUBKTNV-1" source="LsdDCm63fnb7tu5n5u13-84" target="LsdDCm63fnb7tu5n5u13-86" edge="1">
          <mxGeometry width="50" height="50" relative="1" as="geometry">
            <mxPoint x="550" y="-10" as="sourcePoint" />
            <mxPoint x="600" y="-60" as="targetPoint" />
            <Array as="points">
              <mxPoint x="697" y="-40" />
            </Array>
          </mxGeometry>
        </mxCell>
        <mxCell id="LsdDCm63fnb7tu5n5u13-88" value="N" style="edgeLabel;html=1;align=center;verticalAlign=middle;resizable=0;points=[];" parent="LsdDCm63fnb7tu5n5u13-87" vertex="1" connectable="0">
          <mxGeometry x="-0.866" y="-7" relative="1" as="geometry">
            <mxPoint x="6" y="18" as="offset" />
          </mxGeometry>
        </mxCell>
        <mxCell id="LsdDCm63fnb7tu5n5u13-89" value="1" style="text;html=1;align=center;verticalAlign=middle;resizable=0;points=[];autosize=1;strokeColor=none;fillColor=none;" parent="WIyWlLk6GJQsqaUBKTNV-1" vertex="1">
          <mxGeometry x="1300" y="355" width="30" height="30" as="geometry" />
        </mxCell>
        <mxCell id="LsdDCm63fnb7tu5n5u13-90" value="Realizada por" style="rhombus;whiteSpace=wrap;html=1;" parent="WIyWlLk6GJQsqaUBKTNV-1" vertex="1">
          <mxGeometry x="719.5" y="240" width="90" height="60" as="geometry" />
        </mxCell>
        <mxCell id="LsdDCm63fnb7tu5n5u13-92" value="" style="endArrow=none;html=1;rounded=0;entryX=1;entryY=0.5;entryDx=0;entryDy=0;exitX=0.25;exitY=0;exitDx=0;exitDy=0;" parent="WIyWlLk6GJQsqaUBKTNV-1" source="S4BjxRfpwsZ_V-ewSbEt-13" target="LsdDCm63fnb7tu5n5u13-90" edge="1">
          <mxGeometry width="50" height="50" relative="1" as="geometry">
            <mxPoint x="840" y="380" as="sourcePoint" />
            <mxPoint x="890" y="330" as="targetPoint" />
            <Array as="points">
              <mxPoint x="865" y="270" />
            </Array>
          </mxGeometry>
        </mxCell>
        <mxCell id="LsdDCm63fnb7tu5n5u13-93" value="" style="endArrow=none;html=1;rounded=0;entryX=0.597;entryY=1.054;entryDx=0;entryDy=0;entryPerimeter=0;exitX=0;exitY=0.5;exitDx=0;exitDy=0;shape=link;" parent="WIyWlLk6GJQsqaUBKTNV-1" source="LsdDCm63fnb7tu5n5u13-90" target="LsdDCm63fnb7tu5n5u13-84" edge="1">
          <mxGeometry width="50" height="50" relative="1" as="geometry">
            <mxPoint x="670" y="270" as="sourcePoint" />
            <mxPoint x="710" y="230" as="targetPoint" />
            <Array as="points">
              <mxPoint x="679" y="270" />
            </Array>
          </mxGeometry>
        </mxCell>
        <mxCell id="LsdDCm63fnb7tu5n5u13-94" value="1" style="text;html=1;align=center;verticalAlign=middle;resizable=0;points=[];autosize=1;strokeColor=none;fillColor=none;" parent="WIyWlLk6GJQsqaUBKTNV-1" vertex="1">
          <mxGeometry x="840" y="355" width="30" height="30" as="geometry" />
        </mxCell>
        <mxCell id="LsdDCm63fnb7tu5n5u13-95" value="N" style="text;html=1;align=center;verticalAlign=middle;resizable=0;points=[];autosize=1;strokeColor=none;fillColor=none;" parent="WIyWlLk6GJQsqaUBKTNV-1" vertex="1">
          <mxGeometry x="680" y="160" width="30" height="30" as="geometry" />
        </mxCell>
        <mxCell id="LsdDCm63fnb7tu5n5u13-96" value="Vai" style="rhombus;whiteSpace=wrap;html=1;" parent="WIyWlLk6GJQsqaUBKTNV-1" vertex="1">
          <mxGeometry x="430" y="280" width="60" height="40" as="geometry" />
        </mxCell>
        <mxCell id="LsdDCm63fnb7tu5n5u13-97" value="" style="endArrow=none;html=1;rounded=0;exitX=0.912;exitY=1.038;exitDx=0;exitDy=0;entryX=0;entryY=0.5;entryDx=0;entryDy=0;exitPerimeter=0;" parent="WIyWlLk6GJQsqaUBKTNV-1" source="a0xCehPqRtqKpOhBl0_4-2" target="LsdDCm63fnb7tu5n5u13-96" edge="1">
          <mxGeometry width="50" height="50" relative="1" as="geometry">
            <mxPoint x="310" y="330" as="sourcePoint" />
            <mxPoint x="360" y="280" as="targetPoint" />
            <Array as="points">
              <mxPoint x="290" y="300" />
            </Array>
          </mxGeometry>
        </mxCell>
        <mxCell id="LsdDCm63fnb7tu5n5u13-98" value="1" style="text;html=1;align=center;verticalAlign=middle;resizable=0;points=[];autosize=1;strokeColor=none;fillColor=none;" parent="WIyWlLk6GJQsqaUBKTNV-1" vertex="1">
          <mxGeometry x="285" y="260" width="30" height="30" as="geometry" />
        </mxCell>
        <mxCell id="LsdDCm63fnb7tu5n5u13-101" value="" style="endArrow=none;html=1;rounded=0;exitX=1;exitY=0.5;exitDx=0;exitDy=0;entryX=0.25;entryY=1;entryDx=0;entryDy=0;shape=link;" parent="WIyWlLk6GJQsqaUBKTNV-1" source="LsdDCm63fnb7tu5n5u13-96" target="LsdDCm63fnb7tu5n5u13-84" edge="1">
          <mxGeometry width="50" height="50" relative="1" as="geometry">
            <mxPoint x="570" y="310" as="sourcePoint" />
            <mxPoint x="620" y="260" as="targetPoint" />
            <Array as="points">
              <mxPoint x="637" y="300" />
            </Array>
          </mxGeometry>
        </mxCell>
        <mxCell id="LsdDCm63fnb7tu5n5u13-102" value="N" style="text;html=1;align=center;verticalAlign=middle;resizable=0;points=[];autosize=1;strokeColor=none;fillColor=none;" parent="WIyWlLk6GJQsqaUBKTNV-1" vertex="1">
          <mxGeometry x="610" y="158.79" width="30" height="30" as="geometry" />
        </mxCell>
        <mxCell id="LsdDCm63fnb7tu5n5u13-103" value="" style="endArrow=none;html=1;rounded=0;exitX=0.381;exitY=0.005;exitDx=0;exitDy=0;exitPerimeter=0;entryX=0;entryY=0.5;entryDx=0;entryDy=0;" parent="WIyWlLk6GJQsqaUBKTNV-1" source="a0xCehPqRtqKpOhBl0_4-2" target="LsdDCm63fnb7tu5n5u13-104" edge="1">
          <mxGeometry width="50" height="50" relative="1" as="geometry">
            <mxPoint x="190" y="80" as="sourcePoint" />
            <mxPoint x="230" as="targetPoint" />
            <Array as="points">
              <mxPoint x="226" y="-100" />
            </Array>
          </mxGeometry>
        </mxCell>
        <mxCell id="LsdDCm63fnb7tu5n5u13-104" value="Regista" style="rhombus;whiteSpace=wrap;html=1;" parent="WIyWlLk6GJQsqaUBKTNV-1" vertex="1">
          <mxGeometry x="473" y="-130" width="100" height="60" as="geometry" />
        </mxCell>
        <mxCell id="LsdDCm63fnb7tu5n5u13-105" value="N" style="text;html=1;align=center;verticalAlign=middle;resizable=0;points=[];autosize=1;strokeColor=none;fillColor=none;" parent="WIyWlLk6GJQsqaUBKTNV-1" vertex="1">
          <mxGeometry x="220" y="180.00000000000003" width="30" height="30" as="geometry" />
        </mxCell>
        <mxCell id="LsdDCm63fnb7tu5n5u13-107" value="" style="endArrow=none;html=1;rounded=0;exitX=0.75;exitY=0;exitDx=0;exitDy=0;entryX=1;entryY=0.5;entryDx=0;entryDy=0;" parent="WIyWlLk6GJQsqaUBKTNV-1" source="S4BjxRfpwsZ_V-ewSbEt-12" target="LsdDCm63fnb7tu5n5u13-104" edge="1">
          <mxGeometry width="50" height="50" relative="1" as="geometry">
            <mxPoint x="1400" y="350" as="sourcePoint" />
            <mxPoint x="780" y="-180" as="targetPoint" />
            <Array as="points">
              <mxPoint x="1336" y="-100" />
            </Array>
          </mxGeometry>
        </mxCell>
        <mxCell id="LsdDCm63fnb7tu5n5u13-109" value="1" style="text;html=1;align=center;verticalAlign=middle;resizable=0;points=[];autosize=1;strokeColor=none;fillColor=none;" parent="WIyWlLk6GJQsqaUBKTNV-1" vertex="1">
          <mxGeometry x="1340" y="355" width="30" height="30" as="geometry" />
        </mxCell>
        <mxCell id="LsdDCm63fnb7tu5n5u13-111" value="Valor" style="ellipse;whiteSpace=wrap;html=1;" parent="WIyWlLk6GJQsqaUBKTNV-1" vertex="1">
          <mxGeometry x="-458" y="320" width="90" height="70" as="geometry" />
        </mxCell>
        <mxCell id="LsdDCm63fnb7tu5n5u13-112" value="Método de pagamento" style="ellipse;whiteSpace=wrap;html=1;" parent="WIyWlLk6GJQsqaUBKTNV-1" vertex="1">
          <mxGeometry x="-450" y="430" width="90" height="70" as="geometry" />
        </mxCell>
        <mxCell id="LsdDCm63fnb7tu5n5u13-113" value="Data de pagamento" style="ellipse;whiteSpace=wrap;html=1;" parent="WIyWlLk6GJQsqaUBKTNV-1" vertex="1">
          <mxGeometry x="-320" y="265" width="90" height="70" as="geometry" />
        </mxCell>
        <mxCell id="LsdDCm63fnb7tu5n5u13-114" value="&lt;u&gt;Comprovativo&lt;/u&gt;" style="ellipse;whiteSpace=wrap;html=1;" parent="WIyWlLk6GJQsqaUBKTNV-1" vertex="1">
          <mxGeometry x="-340" y="485" width="90" height="70" as="geometry" />
        </mxCell>
        <mxCell id="LsdDCm63fnb7tu5n5u13-115" value="" style="endArrow=none;html=1;rounded=0;entryX=1;entryY=1;entryDx=0;entryDy=0;exitX=0.25;exitY=0;exitDx=0;exitDy=0;" parent="WIyWlLk6GJQsqaUBKTNV-1" source="LsdDCm63fnb7tu5n5u13-62" target="LsdDCm63fnb7tu5n5u13-113" edge="1">
          <mxGeometry width="50" height="50" relative="1" as="geometry">
            <mxPoint x="-530" y="460" as="sourcePoint" />
            <mxPoint x="-480" y="410" as="targetPoint" />
          </mxGeometry>
        </mxCell>
        <mxCell id="LsdDCm63fnb7tu5n5u13-117" value="" style="endArrow=none;html=1;rounded=0;entryX=0;entryY=0.5;entryDx=0;entryDy=0;exitX=1;exitY=0.5;exitDx=0;exitDy=0;" parent="WIyWlLk6GJQsqaUBKTNV-1" source="LsdDCm63fnb7tu5n5u13-111" target="LsdDCm63fnb7tu5n5u13-62" edge="1">
          <mxGeometry width="50" height="50" relative="1" as="geometry">
            <mxPoint x="-350" y="480" as="sourcePoint" />
            <mxPoint x="-300" y="430" as="targetPoint" />
          </mxGeometry>
        </mxCell>
        <mxCell id="LsdDCm63fnb7tu5n5u13-118" value="" style="endArrow=none;html=1;rounded=0;entryX=0;entryY=0.75;entryDx=0;entryDy=0;exitX=1;exitY=0;exitDx=0;exitDy=0;" parent="WIyWlLk6GJQsqaUBKTNV-1" source="LsdDCm63fnb7tu5n5u13-112" target="LsdDCm63fnb7tu5n5u13-62" edge="1">
          <mxGeometry width="50" height="50" relative="1" as="geometry">
            <mxPoint x="-320" y="500" as="sourcePoint" />
            <mxPoint x="-270" y="450" as="targetPoint" />
          </mxGeometry>
        </mxCell>
        <mxCell id="LsdDCm63fnb7tu5n5u13-119" value="" style="endArrow=none;html=1;rounded=0;entryX=0.25;entryY=1;entryDx=0;entryDy=0;exitX=1;exitY=0;exitDx=0;exitDy=0;" parent="WIyWlLk6GJQsqaUBKTNV-1" source="LsdDCm63fnb7tu5n5u13-114" target="LsdDCm63fnb7tu5n5u13-62" edge="1">
          <mxGeometry width="50" height="50" relative="1" as="geometry">
            <mxPoint x="-260" y="510" as="sourcePoint" />
            <mxPoint x="-210" y="460" as="targetPoint" />
          </mxGeometry>
        </mxCell>
        <mxCell id="LsdDCm63fnb7tu5n5u13-120" value="1" style="text;html=1;align=center;verticalAlign=middle;resizable=0;points=[];autosize=1;strokeColor=none;fillColor=none;" parent="WIyWlLk6GJQsqaUBKTNV-1" vertex="1">
          <mxGeometry x="150" y="220" width="30" height="30" as="geometry" />
        </mxCell>
        <mxCell id="LsdDCm63fnb7tu5n5u13-123" value="N" style="text;html=1;align=center;verticalAlign=middle;resizable=0;points=[];autosize=1;strokeColor=none;fillColor=none;" parent="WIyWlLk6GJQsqaUBKTNV-1" vertex="1">
          <mxGeometry x="-165" y="355" width="30" height="30" as="geometry" />
        </mxCell>
        <mxCell id="FEZQBZhvT6F3zBQlHMTn-0" value="&lt;u&gt;Número da Consulta&lt;/u&gt;" style="ellipse;whiteSpace=wrap;html=1;" parent="WIyWlLk6GJQsqaUBKTNV-1" vertex="1">
          <mxGeometry x="540" width="70" height="60" as="geometry" />
        </mxCell>
        <mxCell id="FEZQBZhvT6F3zBQlHMTn-1" value="Data" style="ellipse;whiteSpace=wrap;html=1;" parent="WIyWlLk6GJQsqaUBKTNV-1" vertex="1">
          <mxGeometry x="510" y="80" width="70" height="60" as="geometry" />
        </mxCell>
        <mxCell id="FEZQBZhvT6F3zBQlHMTn-2" value="Hora" style="ellipse;whiteSpace=wrap;html=1;" parent="WIyWlLk6GJQsqaUBKTNV-1" vertex="1">
          <mxGeometry x="620" y="-30" width="70" height="60" as="geometry" />
        </mxCell>
        <mxCell id="FEZQBZhvT6F3zBQlHMTn-3" value="Preço" style="ellipse;whiteSpace=wrap;html=1;" parent="WIyWlLk6GJQsqaUBKTNV-1" vertex="1">
          <mxGeometry x="770" y="20" width="70" height="60" as="geometry" />
        </mxCell>
        <mxCell id="FEZQBZhvT6F3zBQlHMTn-4" value="" style="endArrow=none;html=1;rounded=0;entryX=0.5;entryY=1;entryDx=0;entryDy=0;exitX=0.5;exitY=0;exitDx=0;exitDy=0;" parent="WIyWlLk6GJQsqaUBKTNV-1" source="LsdDCm63fnb7tu5n5u13-84" target="FEZQBZhvT6F3zBQlHMTn-2" edge="1">
          <mxGeometry width="50" height="50" relative="1" as="geometry">
            <mxPoint x="630" y="100" as="sourcePoint" />
            <mxPoint x="680" y="50" as="targetPoint" />
          </mxGeometry>
        </mxCell>
        <mxCell id="FEZQBZhvT6F3zBQlHMTn-5" value="" style="endArrow=none;html=1;rounded=0;entryX=1;entryY=1;entryDx=0;entryDy=0;exitX=0.25;exitY=0;exitDx=0;exitDy=0;" parent="WIyWlLk6GJQsqaUBKTNV-1" source="LsdDCm63fnb7tu5n5u13-84" target="FEZQBZhvT6F3zBQlHMTn-0" edge="1">
          <mxGeometry width="50" height="50" relative="1" as="geometry">
            <mxPoint x="590" y="110" as="sourcePoint" />
            <mxPoint x="640" y="60" as="targetPoint" />
          </mxGeometry>
        </mxCell>
        <mxCell id="FEZQBZhvT6F3zBQlHMTn-6" value="" style="endArrow=none;html=1;rounded=0;entryX=1;entryY=1;entryDx=0;entryDy=0;exitX=0;exitY=0.75;exitDx=0;exitDy=0;" parent="WIyWlLk6GJQsqaUBKTNV-1" source="LsdDCm63fnb7tu5n5u13-84" target="FEZQBZhvT6F3zBQlHMTn-1" edge="1">
          <mxGeometry width="50" height="50" relative="1" as="geometry">
            <mxPoint x="530" y="220" as="sourcePoint" />
            <mxPoint x="580" y="170" as="targetPoint" />
          </mxGeometry>
        </mxCell>
        <mxCell id="FEZQBZhvT6F3zBQlHMTn-7" value="" style="endArrow=none;html=1;rounded=0;entryX=0;entryY=1;entryDx=0;entryDy=0;exitX=1;exitY=0.25;exitDx=0;exitDy=0;" parent="WIyWlLk6GJQsqaUBKTNV-1" source="LsdDCm63fnb7tu5n5u13-84" target="FEZQBZhvT6F3zBQlHMTn-3" edge="1">
          <mxGeometry width="50" height="50" relative="1" as="geometry">
            <mxPoint x="760" y="150" as="sourcePoint" />
            <mxPoint x="810" y="100" as="targetPoint" />
          </mxGeometry>
        </mxCell>
        <mxCell id="bW-nTOneaaRAHUPsyb_2-4" style="edgeStyle=orthogonalEdgeStyle;rounded=0;orthogonalLoop=1;jettySize=auto;html=1;exitX=1;exitY=0.5;exitDx=0;exitDy=0;endArrow=none;endFill=0;entryX=0.25;entryY=1;entryDx=0;entryDy=0;shape=link;" parent="WIyWlLk6GJQsqaUBKTNV-1" source="bW-nTOneaaRAHUPsyb_2-3" target="LsdDCm63fnb7tu5n5u13-20" edge="1">
          <mxGeometry relative="1" as="geometry">
            <mxPoint x="840" y="680" as="targetPoint" />
          </mxGeometry>
        </mxCell>
        <mxCell id="bW-nTOneaaRAHUPsyb_2-3" value="Passada ao" style="rhombus;whiteSpace=wrap;html=1;" parent="WIyWlLk6GJQsqaUBKTNV-1" vertex="1">
          <mxGeometry x="612.5" y="470" width="85" height="60" as="geometry" />
        </mxCell>
        <mxCell id="bW-nTOneaaRAHUPsyb_2-5" value="1" style="text;html=1;align=center;verticalAlign=middle;resizable=0;points=[];autosize=1;strokeColor=none;fillColor=none;" parent="WIyWlLk6GJQsqaUBKTNV-1" vertex="1">
          <mxGeometry x="249" y="265" width="30" height="30" as="geometry" />
        </mxCell>
        <mxCell id="bW-nTOneaaRAHUPsyb_2-6" value="N" style="text;html=1;align=center;verticalAlign=middle;resizable=0;points=[];autosize=1;strokeColor=none;fillColor=none;" parent="WIyWlLk6GJQsqaUBKTNV-1" vertex="1">
          <mxGeometry x="950" y="685" width="30" height="30" as="geometry" />
        </mxCell>
        <mxCell id="LDfLja676x2Zl1dGnNLM-0" value="Nome" style="ellipse;whiteSpace=wrap;html=1;" parent="WIyWlLk6GJQsqaUBKTNV-1" vertex="1">
          <mxGeometry x="110" y="685" width="70" height="60" as="geometry" />
        </mxCell>
        <mxCell id="LDfLja676x2Zl1dGnNLM-1" value="" style="endArrow=none;html=1;rounded=0;entryX=0.25;entryY=1;entryDx=0;entryDy=0;exitX=0.5;exitY=0;exitDx=0;exitDy=0;" parent="WIyWlLk6GJQsqaUBKTNV-1" source="LDfLja676x2Zl1dGnNLM-0" target="S4BjxRfpwsZ_V-ewSbEt-18" edge="1">
          <mxGeometry width="50" height="50" relative="1" as="geometry">
            <mxPoint x="140" y="670" as="sourcePoint" />
            <mxPoint x="190" y="620" as="targetPoint" />
          </mxGeometry>
        </mxCell>
        <mxCell id="LDfLja676x2Zl1dGnNLM-3" value="Quantidade" style="ellipse;whiteSpace=wrap;html=1;" parent="WIyWlLk6GJQsqaUBKTNV-1" vertex="1">
          <mxGeometry x="550" y="817.5" width="90" height="70" as="geometry" />
        </mxCell>
        <mxCell id="LDfLja676x2Zl1dGnNLM-4" value="" style="endArrow=none;html=1;rounded=0;entryX=0.75;entryY=1;entryDx=0;entryDy=0;exitX=0;exitY=0;exitDx=0;exitDy=0;" parent="WIyWlLk6GJQsqaUBKTNV-1" source="LDfLja676x2Zl1dGnNLM-3" target="LsdDCm63fnb7tu5n5u13-28" edge="1">
          <mxGeometry width="50" height="50" relative="1" as="geometry">
            <mxPoint x="470" y="890" as="sourcePoint" />
            <mxPoint x="520" y="840" as="targetPoint" />
          </mxGeometry>
        </mxCell>
        <mxCell id="LDfLja676x2Zl1dGnNLM-5" value="&lt;u&gt;ID&lt;/u&gt;" style="ellipse;whiteSpace=wrap;html=1;" parent="WIyWlLk6GJQsqaUBKTNV-1" vertex="1">
          <mxGeometry x="423" y="830" width="90" height="70" as="geometry" />
        </mxCell>
        <mxCell id="LDfLja676x2Zl1dGnNLM-7" value="" style="endArrow=none;html=1;rounded=0;entryX=0.25;entryY=1;entryDx=0;entryDy=0;exitX=0.5;exitY=0;exitDx=0;exitDy=0;" parent="WIyWlLk6GJQsqaUBKTNV-1" source="LDfLja676x2Zl1dGnNLM-5" target="LsdDCm63fnb7tu5n5u13-28" edge="1">
          <mxGeometry width="50" height="50" relative="1" as="geometry">
            <mxPoint x="400" y="860" as="sourcePoint" />
            <mxPoint x="450" y="810" as="targetPoint" />
          </mxGeometry>
        </mxCell>
        <mxCell id="LDfLja676x2Zl1dGnNLM-11" value="Nº de produtos" style="ellipse;whiteSpace=wrap;html=1;" parent="WIyWlLk6GJQsqaUBKTNV-1" vertex="1">
          <mxGeometry x="30" y="350" width="70" height="60" as="geometry" />
        </mxCell>
        <mxCell id="LDfLja676x2Zl1dGnNLM-12" value="" style="endArrow=none;html=1;rounded=0;entryX=0;entryY=0.5;entryDx=0;entryDy=0;exitX=1;exitY=0.5;exitDx=0;exitDy=0;" parent="WIyWlLk6GJQsqaUBKTNV-1" source="LDfLja676x2Zl1dGnNLM-11" target="LsdDCm63fnb7tu5n5u13-29" edge="1">
          <mxGeometry width="50" height="50" relative="1" as="geometry">
            <mxPoint x="110" y="430" as="sourcePoint" />
            <mxPoint x="160" y="380" as="targetPoint" />
          </mxGeometry>
        </mxCell>
        <mxCell id="LDfLja676x2Zl1dGnNLM-15" value="Emitida para" style="rhombus;whiteSpace=wrap;html=1;" parent="WIyWlLk6GJQsqaUBKTNV-1" vertex="1">
          <mxGeometry x="-610" y="415" width="80" height="75" as="geometry" />
        </mxCell>
        <mxCell id="LDfLja676x2Zl1dGnNLM-16" value="" style="endArrow=none;html=1;rounded=0;entryX=0;entryY=0;entryDx=0;entryDy=0;exitX=0.5;exitY=0;exitDx=0;exitDy=0;" parent="WIyWlLk6GJQsqaUBKTNV-1" source="LDfLja676x2Zl1dGnNLM-15" target="a0xCehPqRtqKpOhBl0_4-2" edge="1">
          <mxGeometry width="50" height="50" relative="1" as="geometry">
            <mxPoint x="-620" y="400" as="sourcePoint" />
            <mxPoint x="-570" y="350" as="targetPoint" />
            <Array as="points">
              <mxPoint x="-570" y="160" />
              <mxPoint x="130" y="160" />
            </Array>
          </mxGeometry>
        </mxCell>
        <mxCell id="LDfLja676x2Zl1dGnNLM-18" value="" style="shape=link;html=1;rounded=0;entryX=0.5;entryY=1;entryDx=0;entryDy=0;exitX=0.25;exitY=0;exitDx=0;exitDy=0;width=2.3076923076923066;" parent="WIyWlLk6GJQsqaUBKTNV-1" source="LsdDCm63fnb7tu5n5u13-66" target="LDfLja676x2Zl1dGnNLM-15" edge="1">
          <mxGeometry width="100" relative="1" as="geometry">
            <mxPoint x="-800" y="690" as="sourcePoint" />
            <mxPoint x="-700" y="690" as="targetPoint" />
            <Array as="points">
              <mxPoint x="-190" y="720" />
              <mxPoint x="-570" y="720" />
            </Array>
          </mxGeometry>
        </mxCell>
        <mxCell id="LDfLja676x2Zl1dGnNLM-20" value="N" style="text;html=1;align=center;verticalAlign=middle;resizable=0;points=[];autosize=1;strokeColor=none;fillColor=none;" parent="WIyWlLk6GJQsqaUBKTNV-1" vertex="1">
          <mxGeometry x="-220" y="747.5" width="30" height="30" as="geometry" />
        </mxCell>
        <mxCell id="LDfLja676x2Zl1dGnNLM-21" value="1" style="text;html=1;align=center;verticalAlign=middle;resizable=0;points=[];autosize=1;strokeColor=none;fillColor=none;" parent="WIyWlLk6GJQsqaUBKTNV-1" vertex="1">
          <mxGeometry x="140" y="180" width="30" height="30" as="geometry" />
        </mxCell>
        <mxCell id="jVxuBuZQ8dEIb_GNbKsm-0" value="Pessoa" style="rounded=0;whiteSpace=wrap;html=1;" vertex="1" parent="WIyWlLk6GJQsqaUBKTNV-1">
          <mxGeometry x="732.39" y="-435" width="120" height="60" as="geometry" />
        </mxCell>
        <mxCell id="jVxuBuZQ8dEIb_GNbKsm-1" value="&lt;u&gt;CC&lt;/u&gt;" style="ellipse;whiteSpace=wrap;html=1;" vertex="1" parent="WIyWlLk6GJQsqaUBKTNV-1">
          <mxGeometry x="583" y="-530" width="90" height="70" as="geometry" />
        </mxCell>
        <mxCell id="jVxuBuZQ8dEIb_GNbKsm-2" value="Nome" style="ellipse;whiteSpace=wrap;html=1;" vertex="1" parent="WIyWlLk6GJQsqaUBKTNV-1">
          <mxGeometry x="719.5" y="-584" width="90" height="70" as="geometry" />
        </mxCell>
        <mxCell id="jVxuBuZQ8dEIb_GNbKsm-3" value="Telemóvel" style="ellipse;whiteSpace=wrap;html=1;" vertex="1" parent="WIyWlLk6GJQsqaUBKTNV-1">
          <mxGeometry x="870" y="-550" width="90" height="70" as="geometry" />
        </mxCell>
        <mxCell id="jVxuBuZQ8dEIb_GNbKsm-5" value="Email" style="ellipse;whiteSpace=wrap;html=1;" vertex="1" parent="WIyWlLk6GJQsqaUBKTNV-1">
          <mxGeometry x="950" y="-450" width="90" height="70" as="geometry" />
        </mxCell>
        <mxCell id="jVxuBuZQ8dEIb_GNbKsm-6" value="Morada" style="ellipse;whiteSpace=wrap;html=1;" vertex="1" parent="WIyWlLk6GJQsqaUBKTNV-1">
          <mxGeometry x="550" y="-440" width="90" height="70" as="geometry" />
        </mxCell>
        <mxCell id="jVxuBuZQ8dEIb_GNbKsm-7" value="" style="endArrow=none;html=1;rounded=0;entryX=0;entryY=0.75;entryDx=0;entryDy=0;exitX=1;exitY=0.5;exitDx=0;exitDy=0;" edge="1" parent="WIyWlLk6GJQsqaUBKTNV-1" source="jVxuBuZQ8dEIb_GNbKsm-6" target="jVxuBuZQ8dEIb_GNbKsm-0">
          <mxGeometry width="50" height="50" relative="1" as="geometry">
            <mxPoint x="690" y="-220" as="sourcePoint" />
            <mxPoint x="740" y="-270" as="targetPoint" />
          </mxGeometry>
        </mxCell>
        <mxCell id="jVxuBuZQ8dEIb_GNbKsm-8" value="" style="endArrow=none;html=1;rounded=0;exitX=1;exitY=1;exitDx=0;exitDy=0;entryX=0;entryY=0;entryDx=0;entryDy=0;" edge="1" parent="WIyWlLk6GJQsqaUBKTNV-1" source="jVxuBuZQ8dEIb_GNbKsm-1" target="jVxuBuZQ8dEIb_GNbKsm-0">
          <mxGeometry width="50" height="50" relative="1" as="geometry">
            <mxPoint x="670" y="-410" as="sourcePoint" />
            <mxPoint x="720" y="-460" as="targetPoint" />
          </mxGeometry>
        </mxCell>
        <mxCell id="jVxuBuZQ8dEIb_GNbKsm-9" value="" style="endArrow=none;html=1;rounded=0;entryX=0.5;entryY=1;entryDx=0;entryDy=0;exitX=0.405;exitY=0.03;exitDx=0;exitDy=0;exitPerimeter=0;" edge="1" parent="WIyWlLk6GJQsqaUBKTNV-1" source="jVxuBuZQ8dEIb_GNbKsm-0" target="jVxuBuZQ8dEIb_GNbKsm-2">
          <mxGeometry width="50" height="50" relative="1" as="geometry">
            <mxPoint x="760" y="-450" as="sourcePoint" />
            <mxPoint x="810" y="-500" as="targetPoint" />
          </mxGeometry>
        </mxCell>
        <mxCell id="jVxuBuZQ8dEIb_GNbKsm-10" value="" style="endArrow=none;html=1;rounded=0;entryX=0;entryY=1;entryDx=0;entryDy=0;exitX=0.75;exitY=0;exitDx=0;exitDy=0;" edge="1" parent="WIyWlLk6GJQsqaUBKTNV-1" source="jVxuBuZQ8dEIb_GNbKsm-0" target="jVxuBuZQ8dEIb_GNbKsm-3">
          <mxGeometry width="50" height="50" relative="1" as="geometry">
            <mxPoint x="810" y="-430" as="sourcePoint" />
            <mxPoint x="860" y="-480" as="targetPoint" />
          </mxGeometry>
        </mxCell>
        <mxCell id="jVxuBuZQ8dEIb_GNbKsm-11" value="" style="endArrow=none;html=1;rounded=0;exitX=1;exitY=0.5;exitDx=0;exitDy=0;entryX=0;entryY=0.5;entryDx=0;entryDy=0;" edge="1" parent="WIyWlLk6GJQsqaUBKTNV-1" source="jVxuBuZQ8dEIb_GNbKsm-0" target="jVxuBuZQ8dEIb_GNbKsm-5">
          <mxGeometry width="50" height="50" relative="1" as="geometry">
            <mxPoint x="890" y="-330" as="sourcePoint" />
            <mxPoint x="940" y="-380" as="targetPoint" />
          </mxGeometry>
        </mxCell>
        <mxCell id="jVxuBuZQ8dEIb_GNbKsm-12" value="&lt;p style=&quot;line-height: 0%;&quot;&gt;IS-A&lt;/p&gt;" style="triangle;whiteSpace=wrap;html=1;rotation=-90;align=center;" vertex="1" parent="WIyWlLk6GJQsqaUBKTNV-1">
          <mxGeometry x="754" y="-296.63" width="72.75" height="100" as="geometry" />
        </mxCell>
        <mxCell id="jVxuBuZQ8dEIb_GNbKsm-14" value="" style="shape=link;html=1;rounded=0;exitX=0.5;exitY=1;exitDx=0;exitDy=0;width=8.333333333333336;entryX=1;entryY=0.5;entryDx=0;entryDy=0;" edge="1" parent="WIyWlLk6GJQsqaUBKTNV-1" source="jVxuBuZQ8dEIb_GNbKsm-0" target="jVxuBuZQ8dEIb_GNbKsm-12">
          <mxGeometry width="100" relative="1" as="geometry">
            <mxPoint x="772.5" y="-340" as="sourcePoint" />
            <mxPoint x="837.5" y="-259" as="targetPoint" />
            <Array as="points" />
          </mxGeometry>
        </mxCell>
        <mxCell id="jVxuBuZQ8dEIb_GNbKsm-15" value="" style="endArrow=none;html=1;rounded=0;entryX=0;entryY=0.25;entryDx=0;entryDy=0;exitX=0.75;exitY=0;exitDx=0;exitDy=0;" edge="1" parent="WIyWlLk6GJQsqaUBKTNV-1" source="a0xCehPqRtqKpOhBl0_4-2" target="jVxuBuZQ8dEIb_GNbKsm-12">
          <mxGeometry width="50" height="50" relative="1" as="geometry">
            <mxPoint x="310" y="-160" as="sourcePoint" />
            <mxPoint x="360" y="-210" as="targetPoint" />
            <Array as="points">
              <mxPoint x="270" y="-170" />
              <mxPoint x="765" y="-170" />
            </Array>
          </mxGeometry>
        </mxCell>
        <mxCell id="jVxuBuZQ8dEIb_GNbKsm-16" value="" style="endArrow=none;html=1;rounded=0;exitX=0.5;exitY=0;exitDx=0;exitDy=0;entryX=0;entryY=0.75;entryDx=0;entryDy=0;" edge="1" parent="WIyWlLk6GJQsqaUBKTNV-1" source="a0xCehPqRtqKpOhBl0_4-20" target="jVxuBuZQ8dEIb_GNbKsm-12">
          <mxGeometry width="50" height="50" relative="1" as="geometry">
            <mxPoint x="960" y="-140" as="sourcePoint" />
            <mxPoint x="800" y="-210" as="targetPoint" />
            <Array as="points">
              <mxPoint x="1015" y="-170" />
              <mxPoint x="815" y="-170" />
            </Array>
          </mxGeometry>
        </mxCell>
      </root>
    </mxGraphModel>
  </diagram>
</mxfile>
